<svg xmlns="http://www.w3.org/2000/svg" id="Layer_1" viewBox="0 0 360.6 360.7">
  
  <path d="M37.3,0l3.5,2.2,8.6,17.2,16.8,2.4c2.4.3,4.7,1.9,5.4,3.6s.4,5.2-1.3,6.9l-12.6,12.3,3,18.9c.6,3.5-4.5,7.1-7.7,5.4l-17-8.7-15,8c-2.3,1.2-5,1.3-7.3-.4s-2.4-3.8-2-6l3-17.2-12.5-12.2c-1.6-1.6-2.4-4-1.8-6.3s2.6-3.8,4.7-4.1l17.8-2.6L31.2,2.4,35.4,0h1.9ZM46.5,52l-1.2-7.9c-.3-2,.3-4.6,1.8-6.1l6.1-6c-4-1-8.6-.2-11.4-2.6s-3.7-6.5-5.7-9.7l-3.3,6.9c-1,2.1-3,3.9-5.4,4.3l-8.2,1.3,7.8,8.1-1.2,11.7c3.3-1.3,6.8-4.2,10-4.3s6.9,3,10.7,4.4Z"/>
  <path d="M135.2,0c6,2,9.8,7.7,8.9,13.7-.9,6.2-6.3,10.5-12.1,10.4s-11.2-4.9-11.7-10.9c-.5-6.1,3.4-11.4,9.5-13.1h5.4Z"/>
  <path d="M360.6,118.5v3.3s-2.8,3.6-2.8,3.6l-7.8.8c-2.6.3-5.3-1-6.6-3.1s-1-5,.3-6.7,4.4-2.4,7-2.5c4.5-.2,8,.3,9.9,4.5Z"/>
  <path d="M302.5,0l3.4,2.7.7,7.9c.2,2.6-1,5.3-3.1,6.6s-4.8.9-6.6-.4-2.4-4.3-2.5-6.9c-.2-4.4.2-8.1,4.4-9.9h3.7Z"/>
  <path d="M23.7,307.3l-9,37.5,50.1-18.9c-18.9-16.8-29.9-39.6-32-64.4l-2.7-32.5c-.3-3.6,2.3-6.3,5.4-6.6s6.3,1.7,6.6,5.3l2.9,35.1c2.3,23.3,14.1,44,32.4,58.3l70-26.5c-55.3-25.7-93.7-76.9-103.3-136.8-.3-3.6,1.8-6.2,5-6.8s6.3,1.3,6.9,4.8c9.6,60.2,50.3,110.8,107.6,132.6l42.4-16.1c-8.1-3-15.5-6.4-23.2-10.8-24.3-13.8-45.7-31-64.9-51.3s-43.2-50.2-53.2-78.5c-4.5-12.7-7-29.3,2.3-38.8,6.2-6.3,14.9-8.7,23.5-7.4s6,3.4,5.5,7-3.5,5.6-7.4,5-11.2.7-13.9,5.3c-7.2,11.9,5.7,37.2,13.5,50.2,11.3,18.8,25.1,35.3,40.4,51.1,21.1,21.8,45.1,40.3,72.5,53.4s17.1,6.4,26,6.4,11.9-4.7,12.1-11.7c.2-7.3-1.7-14.4-4.3-21.3-1.4-3.6.2-7.3,4-8.4s6.3,1.1,7.5,4.7c2.9,8.6,5.4,17.3,4.6,26.4-.7,10.8-7.6,19.3-18.2,21.6L8.1,360.2c-2.3.9-4.7,0-6.1-1.2s-2.4-3.7-1.8-5.8l11.8-48.1c.8-3.3,3.6-4.9,6.7-4.6s5.9,3.1,5,6.8Z"/>
  <path d="M344.4,351.8c5.3-9.8,5.4-21.3-1-30.8-.8,4.9-1.5,9.8-3.9,14.4-6.3,12-21.2,16.2-32.8,9.9-11.6-6.3-16.2-21.1-9.3-32.9,5.2-8.8,13.7-14.3,23.9-16.5-12.1-13.6-28-22.3-45.7-25.5s-5.3-3.6-5-6.5,3.2-6,6.9-5.4c26.2,4.4,48.7,19.9,62.5,42.5,11.5,7.3,19.3,19.1,19.9,32.8s-.6,15.9-4.8,22.9c-1.3,3.4-4.9,4.7-7.9,3.5s-4.9-4.9-2.9-8.4ZM329.2,329c2.4-5.6,2.6-11.7.7-17s-4.1-4.8-7.3-4.1c-5.5,1.2-10.1,4.1-13.5,8.3-4.8,5.9-3.5,14.3,2.8,18.2,5.9,3.6,14.2,1.6,17.3-5.4Z"/>
  <path d="M194.7,185.8c-3.6,1.7-6.9-.8-7.9-3.2s-.3-6.2,2.9-7.8l126.3-60.1c3.4-1.6,6.8.3,8,3.2s0,6.3-3.3,7.9l-126,60Z"/>
  <path d="M127.9,169.8c-1.5,3.5-4.4,5.1-7.8,4.1s-5.1-4.5-3.6-8l8.9-21.5c13.3-32.1,16.3-67.2,8.8-101.1-.8-3.6,1.5-6.5,4.4-7.2s6.5,1,7.3,4.6c8,36.2,4.9,73.6-9.2,107.9l-8.8,21.2Z"/>
  <path d="M202.6,212.7l-21,3.5c-3.7.6-6.8-1.8-7.1-5.2s2.1-6.2,5.8-6.8l20.6-3.4c34.2-5.7,68.9-2.3,101.3,9.7,3.5,1.3,5.1,4.5,3.9,7.8s-4.5,4.8-8.2,3.5c-30.4-11.3-62.9-14.5-95.4-9.1Z"/>
  <path d="M258.5,108.2h-30.1c-3.3,0-6.2-2.5-6.2-6v-30.4c0-3.2,2.7-5.8,5.9-5.8h30.4c3.2,0,5.9,2.6,5.9,5.8v30.4c0,3-2.5,6-5.9,6ZM252.4,96.1v-18.1s-18.2,0-18.2,0v18.1s18.2,0,18.2,0Z"/>
  <path d="M154.8,178.3c-3.1,2.8-6.6,2.5-8.9,0s-2.2-6.3.5-8.7l60-54c2.6-2.4,6.2-1.6,8.2.5s2.5,6,0,8.3l-59.7,53.8Z"/>
  <path d="M327.5,216.6c10.3-1.8,19.1,5.3,20.8,14.6s-4.9,19.1-14.3,20.9-19-4.5-21-13.9c-2.1-9.8,4-19.7,14.5-21.6ZM328.9,228.6c-3.8,1.1-5.2,4.8-3.9,8.1,1.1,2.6,4.1,4.4,7.5,3.3s4.8-4.1,3.8-7.4-3.7-5.1-7.3-4Z"/>
  <path d="M183.8,48.3c10.3-1.5,18.8,5.8,20.3,15s-5.4,19.2-15.1,20.6-18.8-5.1-20.5-14.7,4.7-19.4,15.2-20.9ZM185.5,60.2c-3.6.5-5.6,3.8-5.1,7s3.7,5.4,7.2,4.7,5.3-3.6,4.5-7.2-3.3-5-6.7-4.5Z"/>
  <path d="M330.4,96.9c0,3.8-3.8,5.6-6.6,5.2-3-.4-5.3-2.8-5.3-6.3v-5.6c0-3.4,2.4-5.7,5.5-6s6.5,1.8,6.5,5.3v7.4Z"/>
  <path d="M319.2,29.9l-6.5.2c-3.4,0-5.9-2.4-6.2-5.3s1.4-6.6,4.8-6.6h8.4c3,0,4.8,3.5,4.7,6s-2,5.6-5.2,5.7Z"/>
  <path d="M346.2,107.1c-2.6,2.7-6.4,2.7-8.8.4s-2.6-6.2,0-8.8l3.9-3.9c2.4-2.4,6-2.4,8.3-.4s2.8,6,.5,8.5l-4,4.1Z"/>
  <path d="M330.5,149.8c0,3.9-2.9,6.4-6.1,6.4s-5.9-2.6-5.9-6.2v-5.6c0-3.6,2.7-6.2,5.9-6.2s6.1,2.5,6.1,6.1v5.4Z"/>
  <path d="M306.4,42.6c0,3.6-3.4,5.4-6,5.4s-5.9-2.4-5.9-5.8v-6.3c0-3.5,2.9-5.9,5.9-5.9s6.1,2.3,6.1,5.8v6.7Z"/>
  <path d="M288.9,30h-6.9c-3.4,0-5.4-3-5.5-5.7s1.9-6.2,5.2-6.1h7.7c3.3,0,5.1,3.4,5,6.1s-2,5.7-5.5,5.7Z"/>
  <path d="M341.1,145.3l-4-4.1c-2.4-2.4-1.8-6.2.4-8.3s6-2.3,8.4.2l4.2,4.2c2.4,2.4,1.9,6.4-.4,8.5-2.3,2.1-6,2.1-8.6-.5Z"/>
  <path d="M304.3,108.1l-5.8-5.7c-2.3-2.2-1.1-5.9.8-7.7s5.8-2.3,8.3,0l3.9,3.8c2.2,2.2,2.6,5.3,1,7.9s-5.5,4.3-8.2,1.7Z"/>
</svg>